<?xml version="1.0" standalone="no"?>
<!DOCTYPE svg PUBLIC "-//W3C//DTD SVG 20010904//EN"
 "http://www.w3.org/TR/2001/REC-SVG-20010904/DTD/svg10.dtd">
<svg version="1.0" xmlns="http://www.w3.org/2000/svg"
 width="225.000000pt" height="225.000000pt" viewBox="0 0 225.000000 225.000000"
 preserveAspectRatio="xMidYMid meet">

<g transform="translate(0.000000,225.000000) scale(0.100000,-0.100000)"
fill="#000000" stroke="none">
<path d="M975 2239 c-229 -29 -448 -135 -621 -301 -110 -106 -172 -189 -234
-313 -276 -558 -51 -1227 507 -1504 87 -43 206 -83 303 -102 95 -17 299 -15
401 4 725 141 1122 921 804 1584 -58 123 -112 200 -209 301 -244 254 -593 375
-951 331z m352 -133 c194 -41 357 -129 499 -270 141 -140 222 -279 272 -466
21 -82 25 -116 25 -245 0 -129 -4 -163 -26 -246 -14 -53 -41 -131 -60 -173
-41 -87 -126 -218 -137 -211 -4 3 -89 25 -189 50 -226 56 -279 81 -326 153
l-36 53 41 47 c47 53 201 301 218 351 20 57 15 97 -13 119 -25 20 -25 21 -24
169 1 180 -16 237 -92 318 -96 101 -338 214 -435 203 -22 -2 -34 -13 -52 -46
-18 -33 -38 -50 -84 -73 -80 -40 -142 -99 -175 -168 -26 -53 -28 -65 -31 -215
-4 -154 -5 -159 -28 -180 -35 -30 -41 -82 -16 -138 21 -48 175 -291 217 -344
l25 -31 -47 -64 c-61 -82 -92 -97 -324 -153 -136 -34 -186 -42 -196 -34 -26
21 -105 158 -138 240 -18 46 -41 119 -51 163 -20 97 -23 304 -5 390 67 318
260 575 536 713 116 57 209 85 360 106 51 7 221 -3 292 -18z m-142 -667 c78
-20 156 -33 223 -36 71 -4 102 -9 99 -17 -12 -31 -28 -127 -22 -136 3 -5 24
-10 46 -10 37 0 39 -2 39 -30 0 -38 -11 -60 -109 -219 -130 -212 -202 -272
-326 -273 -128 -1 -194 54 -336 278 -128 204 -136 246 -50 260 l37 6 -9 85
c-7 57 -6 88 1 95 6 6 34 17 64 24 77 20 201 10 343 -27z m-190 -744 c97 -48
207 -41 315 22 3 2 27 -26 53 -61 47 -64 48 -66 33 -94 -26 -50 -104 -111
-165 -128 -155 -46 -361 29 -395 143 -6 17 4 38 40 88 25 36 49 65 53 63 3 -2
33 -16 66 -33z"/>
</g>
</svg>
